<?xml version="1.0" encoding="UTF-8" standalone="no"?>
<!-- Created with Inkscape (http://www.inkscape.org/) -->

<svg
   xmlns:dc="http://purl.org/dc/elements/1.1/"
   xmlns:cc="http://creativecommons.org/ns#"
   xmlns:rdf="http://www.w3.org/1999/02/22-rdf-syntax-ns#"
   xmlns:svg="http://www.w3.org/2000/svg"
   xmlns="http://www.w3.org/2000/svg"
   xmlns:sodipodi="http://sodipodi.sourceforge.net/DTD/sodipodi-0.dtd"
   xmlns:inkscape="http://www.inkscape.org/namespaces/inkscape"
   width="512"
   height="512"
   viewBox="0 0 135.46666 135.46667"
   version="1.1"
   id="svg8"
   inkscape:version="0.92.3 (2405546, 2018-03-11)"
   sodipodi:docname="icon.svg"
   inkscape:export-filename="/home/tristan/Scripts/8values/icon.png"
   inkscape:export-xdpi="96.000008"
   inkscape:export-ydpi="96.000008">
  <defs
     id="defs2" />
  <sodipodi:namedview
     id="base"
     pagecolor="#ffffff"
     bordercolor="#666666"
     borderopacity="1.0"
     inkscape:pageopacity="0.0"
     inkscape:pageshadow="2"
     inkscape:zoom="0.38"
     inkscape:cx="314.73325"
     inkscape:cy="357.3001"
     inkscape:document-units="px"
     inkscape:current-layer="g852"
     showgrid="false"
     units="px"
     inkscape:window-width="1680"
     inkscape:window-height="1028"
     inkscape:window-x="1912"
     inkscape:window-y="98"
     inkscape:window-maximized="1"
     inkscape:lockguides="true" />
  <metadata
     id="metadata5">
    <rdf:RDF>
      <cc:Work
         rdf:about="">
        <dc:format>image/svg+xml</dc:format>
        <dc:type
           rdf:resource="http://purl.org/dc/dcmitype/StillImage" />
        <dc:title />
      </cc:Work>
    </rdf:RDF>
  </metadata>
  <g
     inkscape:label="Layer 1"
     inkscape:groupmode="layer"
     id="layer1"
     transform="translate(0,-161.53331)">
    <rect
       style="opacity:1;fill:#eeeeee;fill-opacity:1;fill-rule:nonzero;stroke:none;stroke-width:0.26458332;stroke-linecap:butt;stroke-linejoin:round;stroke-miterlimit:4;stroke-dasharray:none;stroke-dashoffset:0;stroke-opacity:0.90944878;paint-order:normal"
       id="rect4491"
       width="127"
       height="127"
       x="4.2333326"
       y="165.76665"
       rx="33.866665"
       ry="33.866665" />
    <g
       id="g852">
      <g
         id="g859"
         transform="translate(2.0888157)">
        <polygon
           transform="matrix(0.26458333,0,0,0.26458333,-583.94779,32.197103)"
           class="st0"
           points="2623.5,714.3 2611.2,699.3 2596.1,698.2 2601.3,736.9 2615.5,732.3 "
           id="polygon29"
           style="fill:#000000;fill-opacity:1" />
        <polygon
           transform="matrix(0.26458333,0,0,0.26458333,-583.94779,32.197103)"
           class="st0"
           points="2456.1,610.1 2446.4,573.6 2377.4,582.8 2353,623.7 "
           id="polygon31"
           style="fill:#000000;fill-opacity:1" />
        <polygon
           transform="matrix(0.26458333,0,0,0.26458333,-583.94779,32.197103)"
           class="st0"
           points="2488.5,858.1 2385.8,871.7 2420.1,905.9 2489,895.7 "
           id="polygon33"
           style="fill:#000000;fill-opacity:1" />
        <polygon
           transform="matrix(0.26458333,0,0,0.26458333,-583.94779,32.197103)"
           class="st0"
           points="2349.1,714.6 2358.5,785.7 2329.3,784.7 2321.1,722.8 "
           id="polygon35"
           style="fill:#000000;fill-opacity:1" />
        <path
           inkscape:connector-curvature="0"
           class="st0"
           d="m 85.156988,240.87397 2.19605,0.0794 15.266452,-13.28208 -1.42875,-10.90084 -18.176872,-8.67833 -2.2225,0.55562 -14.04938,-13.5202 -28.4427,3.75708 1.05833,21.93396 2.54,19.18229 4.63021,21.08729 28.44271,-3.75708 z m -39.44937,-9.525 -0.39688,-3.06916 16.77459,-9.63084 11.80041,0.635 6.87917,4.94771 0.26458,1.98438 -5.47687,6.40291 -11.13896,3.75709 z"
           id="path37"
           style="fill:#030000;fill-opacity:1;stroke:#000000;stroke-width:0.26458332;stroke-opacity:1" />
      </g>
    </g>
  </g>
</svg>
