<?xml version="1.0" encoding="UTF-8" standalone="no"?>
<!-- Created with Inkscape (http://www.inkscape.org/) -->

<svg
   xmlns:dc="http://purl.org/dc/elements/1.1/"
   xmlns:cc="http://creativecommons.org/ns#"
   xmlns:rdf="http://www.w3.org/1999/02/22-rdf-syntax-ns#"
   xmlns:svg="http://www.w3.org/2000/svg"
   xmlns="http://www.w3.org/2000/svg"
   xmlns:sodipodi="http://sodipodi.sourceforge.net/DTD/sodipodi-0.dtd"
   xmlns:inkscape="http://www.inkscape.org/namespaces/inkscape"
   width="200"
   height="200"
   viewBox="0 0 52.916668 52.916666"
   version="1.1"
   id="svg8"
   inkscape:version="0.92.3 (2405546, 2018-03-11)"
   sodipodi:docname="ethical.svg">
  <defs
     id="defs2">
    <inkscape:path-effect
       effect="envelope"
       id="path-effect4658"
       is_visible="true"
       yy="true"
       xx="true"
       bendpath1="m -199.08406,108.42369 h 7.0057"
       bendpath2="m -192.07836,108.42369 v 6.75242"
       bendpath3="m -199.08406,115.17611 h 7.0057"
       bendpath4="m -199.08406,108.42369 v 6.75242" />
    <inkscape:path-effect
       effect="bend_path"
       id="path-effect4656"
       is_visible="true"
       bendpath="m -192.00142,114.60623 c 2.12577,-0.53066 4.48261,0.85111 7.0057,0"
       prop_scale="1"
       scale_y_rel="false"
       vertical="false"
       bendpath-nodetypes="cc" />
    <inkscape:path-effect
       effect="bounding_box"
       id="path-effect4654"
       is_visible="true"
       linkedpath=""
       visualbounds="false" />
  </defs>
  <sodipodi:namedview
     id="base"
     pagecolor="#ffffff"
     bordercolor="#666666"
     borderopacity="1.0"
     inkscape:pageopacity="0.0"
     inkscape:pageshadow="2"
     inkscape:zoom="2"
     inkscape:cx="13.035925"
     inkscape:cy="94.85945"
     inkscape:document-units="mm"
     inkscape:current-layer="layer1"
     showgrid="false"
     fit-margin-top="0"
     fit-margin-left="0"
     fit-margin-right="0"
     fit-margin-bottom="0"
     inkscape:window-width="1920"
     inkscape:window-height="1018"
     inkscape:window-x="-8"
     inkscape:window-y="-8"
     inkscape:window-maximized="1"
     showguides="false"
     inkscape:object-nodes="true"
     units="px"
     inkscape:snap-page="true" />
  <metadata
     id="metadata5">
    <rdf:RDF>
      <cc:Work
         rdf:about="">
        <dc:format>image/svg+xml</dc:format>
        <dc:type
           rdf:resource="http://purl.org/dc/dcmitype/StillImage" />
        <dc:title />
      </cc:Work>
    </rdf:RDF>
  </metadata>
  <g
     inkscape:label="Layer 1"
     inkscape:groupmode="layer"
     id="layer1"
     transform="translate(249.80447,-91.409467)">
    <text
       xml:space="preserve"
       style="font-style:normal;font-variant:normal;font-weight:normal;font-stretch:normal;font-size:24.50222015px;line-height:1.25;font-family:sans-serif;-inkscape-font-specification:'sans-serif, Normal';font-variant-ligatures:normal;font-variant-caps:normal;font-variant-numeric:normal;text-align:start;letter-spacing:0px;word-spacing:0px;writing-mode:lr-tb;text-anchor:start;fill:#000000;fill-opacity:1;stroke:none;stroke-width:0.6125555;opacity:0.5;"
       x="-168.56427"
       y="145.68187"
       id="text846"
       transform="scale(0.8922026,1.1208217)"><tspan
         sodipodi:role="line"
         id="tspan844"
         x="-168.56427"
         y="145.68187"
         style="font-style:normal;font-variant:normal;font-weight:bold;font-stretch:normal;font-size:24.50222015px;font-family:sans-serif;-inkscape-font-specification:'sans-serif, Bold';font-variant-ligatures:normal;font-variant-caps:normal;font-variant-numeric:normal;font-feature-settings:normal;text-align:start;writing-mode:lr-tb;text-anchor:start;stroke-width:0.6125555;">G</tspan></text>
    <text
       xml:space="preserve"
       style="font-style:normal;font-variant:normal;font-weight:normal;font-stretch:normal;font-size:11.94091415px;line-height:1.25;font-family:sans-serif;-inkscape-font-specification:'sans-serif, Normal';font-variant-ligatures:normal;font-variant-caps:normal;font-variant-numeric:normal;text-align:start;letter-spacing:0px;word-spacing:0px;writing-mode:lr-tb;text-anchor:start;fill:#000000;fill-opacity:1;stroke:none;stroke-width:0.29852283"
       x="-342.86511"
       y="127.68239"
       id="text902"
       transform="scale(0.8863085,1.1282753)"><tspan
         sodipodi:role="line"
         id="tspan900"
         x="-342.86511"
         y="127.68239"
         style="font-style:normal;font-variant:normal;font-weight:normal;font-stretch:normal;font-size:8.81944466px;font-family:Ethnocentric;-inkscape-font-specification:'Ethnocentric, Normal';font-variant-ligatures:normal;font-variant-caps:normal;font-variant-numeric:normal;font-feature-settings:normal;text-align:start;writing-mode:lr-tb;text-anchor:start;fill:#ffffff;stroke-width:0.29852283">ETHICAL</tspan></text>
    <g
       id="g4585">
      <rect
         ry="3.96875"
         rx="3.96875"
         style="opacity:1;fill:#222222;fill-opacity:1;fill-rule:nonzero;stroke:none;stroke-width:0.5;stroke-linecap:butt;stroke-linejoin:round;stroke-miterlimit:4;stroke-dasharray:none;stroke-dashoffset:0;stroke-opacity:0.90944878;paint-order:normal"
         id="rect5322"
         width="52.916668"
         height="52.916668"
         x="-249.80447"
         y="91.40947" />
      <rect
         ry="2.6458333"
         rx="2.6458333"
         y="94.055298"
         x="-247.15863"
         height="47.625"
         width="47.625"
         id="rect5324"
         style="opacity:1;fill:#00867b;fill-opacity:1;fill-rule:nonzero;stroke:none;stroke-width:0.5;stroke-linecap:butt;stroke-linejoin:round;stroke-miterlimit:4;stroke-dasharray:none;stroke-dashoffset:0;stroke-opacity:0.90944878;paint-order:normal" />
      <path
         inkscape:connector-curvature="0"
         id="path5326"
         d="m -249.80447,128.45114 v 8.33437 c 0,3.07817 2.62231,5.55625 5.87963,5.55625 h 41.15741 c 3.25731,0 5.87963,-2.47808 5.87963,-5.55625 v -8.33437 z"
         style="opacity:1;fill:#222222;fill-opacity:1;fill-rule:nonzero;stroke:none;stroke-width:0.51434445;stroke-linecap:butt;stroke-linejoin:round;stroke-miterlimit:4;stroke-dasharray:none;stroke-dashoffset:0;stroke-opacity:0.90944878;paint-order:normal" />
      <path
         sodipodi:nodetypes="ccccccccccccc"
         inkscape:connector-curvature="0"
         id="path848"
         d="m -212.62845,109.44253 v 3.7482 l 2.73644,0.009 0.009,4.16832 c -3.00707,1.00344 -7.17409,0.47488 -7.72543,-5.97241 0.0227,-5.10217 1.85226,-7.62737 5.27264,-7.88358 2.27722,-0.18942 4.22586,0.73356 6.06522,2.0265 l 0.009,-4.48137 c -5.71323,-2.250173 -10.92517,-2.58044 -14.57486,3.0727 -2.59114,4.81295 -1.61857,11.53746 0.69245,14.20198 3.72098,4.24893 8.67384,4.38366 14.53314,1.49105 l -0.0167,-10.3714 z"
         style="fill:#222222;fill-opacity:1;stroke:#222222;stroke-width:0.28700441px;stroke-linecap:butt;stroke-linejoin:miter;stroke-opacity:1" />
      <path
         style="fill:#222222;fill-opacity:1;stroke:#222222;stroke-width:0.28700441px;stroke-linecap:butt;stroke-linejoin:miter;stroke-opacity:1"
         d="m -232.26172,109.53573 v 3.74821 l 2.73643,0.009 0.009,4.16833 c -3.00708,1.00343 -7.17409,0.47487 -7.72543,-5.97241 0.0227,-5.10217 1.85225,-7.62738 5.27264,-7.88358 2.27722,-0.18942 4.22586,0.73356 6.06521,2.02649 l 0.009,-4.48136 c -5.71323,-2.250177 -10.92517,-2.580444 -14.57486,3.0727 -2.59114,4.81295 -1.61858,11.53746 0.69245,14.20198 3.72098,4.24893 8.67384,4.38366 14.53314,1.49105 l -0.0167,-10.3714 z"
         id="path886"
         inkscape:connector-curvature="0"
         sodipodi:nodetypes="ccccccccccccc" />
      <path
         inkscape:connector-curvature="0"
         id="path4529"
         d="m -245.43984,131.12805 -0.009,6.64969 5.03466,-0.003 1.03906,-1.7091 -4.44856,0.001 0.001,-0.91026 3.21125,0.003 0.92907,-1.51228 h -4.14177 l 0.001,-0.79594 h 3.38346 l 1.04774,-1.7337 z"
         style="fill:#ffffff;stroke:#000000;stroke-width:0;stroke-linecap:butt;stroke-linejoin:miter;stroke-opacity:1;fill-opacity:1;stroke-miterlimit:4;stroke-dasharray:none" />
      <path
         inkscape:connector-curvature="0"
         id="path4546"
         d="m -238.26783,131.11743 -1.04377,1.72937 2.44773,-0.004 0.006,4.92819 1.61271,0.002 v -4.92205 l 1.86649,0.002 1.0499,-1.73346 z"
         style="fill:#ffffff;stroke:#000000;stroke-width:0;stroke-linecap:butt;stroke-linejoin:miter;stroke-opacity:1;stroke-miterlimit:4;stroke-dasharray:none;fill-opacity:1" />
      <path
         inkscape:connector-curvature="0"
         id="path4548"
         d="m -231.82787,131.11936 0.003,6.65114 h 1.62082 l -0.003,-2.56436 3.11718,0.006 v 2.56147 l 1.60056,-0.003 v -6.64535 l -1.60345,-0.003 0.006,2.35598 h -3.12297 l 0.003,-2.35887 z"
         style="fill:#ffffff;stroke:#fcfcfc;stroke-width:0;stroke-linecap:butt;stroke-linejoin:miter;stroke-opacity:1;stroke-miterlimit:4;stroke-dasharray:none;fill-opacity:1" />
      <path
         inkscape:connector-curvature="0"
         id="path4550"
         d="m -224.45893,131.12515 v 6.64825 l 1.61503,0.003 -0.006,-6.65114 z"
         style="fill:#ffffff;stroke:#000000;stroke-width:0;stroke-linecap:butt;stroke-linejoin:miter;stroke-opacity:1;stroke-miterlimit:4;stroke-dasharray:none;fill-opacity:1" />
      <path
         sodipodi:nodetypes="ccccccccccc"
         inkscape:connector-curvature="0"
         id="path4552"
         d="m -216.21881,137.77629 -2.70874,-10e-4 c -1.15403,-0.0209 -2.88436,-0.86099 -3.05965,-3.10877 -0.0163,-2.14759 0.95322,-3.43273 2.81611,-3.52014 l 3.9919,-0.0264 -1.03767,1.73116 h -2.60759 c -0.75915,0.002 -1.54672,0.61378 -1.56993,1.61954 0.0348,1.1849 0.94009,1.57155 1.54513,1.59267 l 3.66902,0.002 z"
         style="fill:#ffffff;stroke:#000000;stroke-width:0;stroke-linecap:butt;stroke-linejoin:miter;stroke-miterlimit:4;stroke-dasharray:none;stroke-opacity:1;fill-opacity:1" />
      <path
         sodipodi:nodetypes="cccccccccc"
         inkscape:connector-curvature="0"
         id="path4554"
         d="m -215.27428,137.77563 1.91616,0.001 2.4536,-4.41834 1.46554,2.71612 -2.24895,-0.008 -0.96635,1.70946 6.07818,-0.001 -3.26182,-6.01203 c -0.50577,-0.91525 -1.48891,-1.06401 -2.10426,0.0351 z"
         style="fill:#ffffff;stroke:#000000;stroke-width:0;stroke-linecap:butt;stroke-linejoin:miter;stroke-miterlimit:4;stroke-dasharray:none;stroke-opacity:1;fill-opacity:1" />
      <path
         inkscape:connector-curvature="0"
         id="path4556"
         d="m -205.99795,137.77657 4.6174,0.002 1.04903,-1.7136 h -4.04937 l 0.002,-4.94543 h -1.61851 z"
         style="fill:#ffffff;stroke:#000000;stroke-width:0;stroke-linecap:butt;stroke-linejoin:miter;stroke-opacity:1;fill-opacity:1;stroke-miterlimit:4;stroke-dasharray:none" />
    </g>
  </g>
</svg>
